<svg width="25" height="30" viewBox="0 0 25 30" fill="none" xmlns="http://www.w3.org/2000/svg">
<path d="M12.4016 0.890706C12.4485 1.1661 13.3449 6.4278 13.3449 8.43756C13.3449 11.502 11.716 13.6875 9.30784 14.5665L10.0637 28.5176C10.1047 29.3203 9.46604 30 8.65745 30H4.90746C4.10473 30 3.4602 29.3262 3.50121 28.5176L4.25707 14.5665C1.84301 13.6875 0.219971 11.4961 0.219971 8.43756C0.219971 6.42194 1.11645 1.1661 1.16333 0.890706C1.35083 -0.298744 3.81762 -0.316322 3.96996 0.955159V9.22857C4.04613 9.42779 4.85472 9.41607 4.90746 9.22857C4.98949 7.74616 5.37035 1.07235 5.37621 0.920003C5.56957 -0.298744 7.99534 -0.298744 8.18284 0.920003C8.19456 1.07821 8.56956 7.74616 8.65159 9.22857C8.70432 9.41607 9.51877 9.42779 9.58909 9.22857V0.955159C9.74143 -0.310462 12.2141 -0.298744 12.4016 0.890706ZM19.3859 17.6309L18.507 28.4766C18.4367 29.2969 19.0871 30 19.9074 30H23.1887C23.968 30 24.5949 29.3731 24.5949 28.5938V1.40633C24.5949 0.632895 23.968 8.37452e-05 23.1887 8.37452e-05C18.3547 8.37452e-05 10.216 10.459 19.3859 17.6309Z" fill="#ACDBDF"/>
</svg>
