<svg width="256" height="50" viewBox="0 0 256 50" fill="none" xmlns="http://www.w3.org/2000/svg">
<path d="M7.97164 35.85C7.97164 36.1 7.92164 37.55 7.97164 37.9C7.97164 39.7 8.02164 40 8.02164 40.95C8.02164 41.15 7.72164 41.35 7.47164 41.4H4.27164V40.85L4.02164 37.3C4.02164 36.05 3.97164 34.85 3.92164 33.65V32.3C3.92164 31.4 3.82164 30.45 3.92164 29.55V27.85C3.92164 26.65 3.87164 25.5 3.82164 24.35C3.82164 24.05 3.87164 23.8 3.87164 23.5C3.82164 20.7 3.87164 19.15 3.77164 16.2V14.8C3.72164 14.05 3.67164 13.25 3.67164 12.55C3.67164 12.55 3.62164 12.3 3.72164 12.05C3.77164 12 4.02164 11.95 4.27164 11.9C4.52164 11.85 4.57164 11.85 4.92164 11.9C5.37164 12 6.07164 11.95 6.87164 11.95C7.52164 11.95 8.02164 12.1 8.02164 12.25V20.05C7.97164 20.6 8.02164 21.1 7.97164 21.6C7.92164 22.35 7.97164 23.05 7.97164 23.8V24.65C7.97164 24.85 7.97164 25.1 7.92164 25.35C7.82164 25.6 7.97164 27 7.97164 27.3C8.02164 29.1 7.87164 29.1 7.87164 29.3C7.82164 30.25 7.97164 31.2 7.97164 32.1C8.02164 33.35 7.97164 34.6 7.97164 35.85ZM58.1084 12.5C59.6084 12.6 60.6584 12.7 62.2584 12.7C62.5584 12.7 62.8584 12.75 63.1084 12.75H64.4584C64.8084 12.75 64.8084 12.75 64.8084 13.05C64.8084 13.35 64.8084 13.95 64.4584 14.5L62.2584 20.35C62.0084 21 61.3084 22.9 61.1084 23.6C60.7584 24 59.4084 27.4 59.0584 27.9C58.8584 28.3 58.7084 29 58.4584 29.7C57.8584 30.95 57.0584 32.95 56.6584 33.85C56.3084 34.4 55.7584 36.3 55.4584 36.85C55.0584 37.6 54.8584 38.45 54.5584 39.2C54.3084 39.85 54.0584 40.75 53.8584 41.35H53.0584C52.7584 41.35 52.5584 41.25 51.8584 41.35C51.3084 41.35 50.3084 41.45 50.0084 41.35H48.2584C48.0084 41.35 47.7084 41.05 47.7084 41.05C47.7584 40.65 47.2584 39.9 47.1084 39.1C46.8084 38.5 46.8084 37.9 46.5584 37.35C46.2584 36 45.8084 34.85 45.5084 33.8C44.9584 32.35 44.5584 30.9 44.0584 29.5C43.8084 28.5 43.3084 27.15 43.0584 26.5C43.0584 26.4 42.9584 26.25 42.9584 26.25C42.8584 26.25 42.8084 26.6 42.7084 26.7C42.7584 26.55 41.8084 28.7 41.7084 29.25C41.3584 30.85 40.6084 32.9 40.2084 34.35C39.7584 35.1 39.5084 36.25 39.3084 37.15C39.1084 38 38.8584 39 38.4584 39.6C38.4584 39.65 37.8084 41.2 37.7584 41.35H32.9584C32.6084 41.35 32.2584 41.05 32.2584 40.75L31.8584 39.15C31.5584 38.5 30.7584 36.25 30.6584 35.65C30.3584 34.85 30.2084 34.2 29.9084 33.45C29.6084 32.55 28.8584 30.6 28.7584 29.85C28.7084 29.35 28.5084 28.95 28.3084 28.5C28.2084 28.3 28.1084 28.15 28.1584 28C28.1584 27.95 26.7584 24.65 26.7584 24.15C26.5584 23.25 25.9584 22 25.8084 21.1C25.7584 20.85 25.7084 20.65 25.5084 20.5L24.9584 19.15L24.7084 18.75C24.4584 17.75 23.4584 15 23.1084 14.2C22.8084 13.95 22.8084 13.35 22.5084 13.05C22.5084 12.75 22.5084 12.75 22.8084 12.75C23.1084 12.7 23.5084 12.7 23.7584 12.75C24.1084 12.8 24.4084 12.8 24.7584 12.75C25.7584 12.7 27.5084 13 28.7584 13.1C28.8584 13.1 29.0584 13.25 29.1084 13.35C29.2084 13.45 29.2584 13.6 29.2584 13.65C29.2584 14 29.5084 14.45 29.6084 14.85C30.0084 16.5 30.4084 18.5 30.8084 19.85C31.2584 20.45 31.8084 23.6 31.9584 24C32.3584 24.8 32.5584 25.65 32.8084 26.35C32.9584 26.6 33.4584 27.85 33.4584 28.05C34.0084 29.5 34.2584 30.7 34.8084 31.8C35.4584 32.85 35.5584 33.9 36.0584 34.75C36.1084 34.95 36.2084 35.1 36.2084 35.1C36.4084 35.1 36.4584 35 36.5584 34.85C37.5584 32.55 37.9584 29.9 38.9584 27.35C39.5084 25.6 40.1084 23.9 40.4084 21.9C40.5584 21.35 40.5584 21.05 40.7584 20.85C41.2584 20.65 41.8084 20.85 42.0584 20.85H44.0584C44.3584 20.8 44.7584 20.75 44.9084 21.3C45.6084 22.9 45.8584 24.6 46.3084 26.25C46.8584 27.35 47.1584 28.8 47.6084 29.8C48.0584 31 48.3084 32.35 48.6084 33.55C49.0584 34.5 49.0084 35.75 49.5584 36.3C50.0084 36.3 50.0084 36 50.0084 36C49.9084 35.9 50.2084 35.35 50.3084 34.9L51.0584 32.65L52.0084 30.4C52.2084 29.7 52.8084 28.1 53.0584 27.5C53.3584 26.7 53.5584 25.95 53.8084 25.2C54.0084 24.35 54.5084 22.35 54.8084 21.6C55.0084 21.1 55.2084 20.8 55.4084 20.25C55.8584 19 56.3584 17.35 56.8084 15.9C57.1084 14.95 57.3084 14.15 57.5584 13.5C57.6584 13.3 58.1084 12.6 58.1084 12.5ZM67.1189 38.6L68.5189 35.1C68.9689 33.8 69.5189 32.45 69.9689 31.15C70.3189 30.15 70.9189 29.1 71.3189 28.3C71.6689 27.2 72.1189 26.45 72.1689 26.25C72.1689 26.15 72.5189 25.65 72.9189 24.45C73.1189 23.85 73.2689 23.15 73.5189 22.55L74.7189 19.65C75.3189 18.2 74.9189 18.5 75.5189 17.1C75.8689 16.4 76.0689 15.7 76.3689 15C76.5189 14.6 76.6689 14.2 76.7689 13.8C76.9689 13.25 77.1189 12.95 77.2189 12.4C77.3689 12.25 77.3689 12 77.5689 11.7C77.9689 11.45 78.2189 11.45 78.4689 11.45H80.7689C80.9189 11.7 80.8189 11.95 80.9689 12.2L81.1689 12.95L81.3189 13.35L81.8689 14.9L82.7689 17.45L83.1189 18.1C83.2189 18.25 83.3689 18.7 83.6189 19.35C83.9189 20.2 84.3689 21.4 84.6689 22.45C85.1189 24.1 85.3689 24.7 85.7189 25.55C85.9189 25.8 85.9189 26.2 86.0689 26.5L86.7189 28.55L87.5689 30.35C87.7689 30.95 87.9689 31.5 88.3189 32.05C88.8689 33.35 89.1189 34.35 89.6189 35.7C89.8689 36.3 90.2189 36.8 90.4189 37.4C90.5689 37.7 90.7189 38.1 90.8189 38.4C91.1689 39 91.3689 39.65 91.6689 40.35C91.8189 40.75 92.0689 41.2 92.1189 41.5C91.8189 41.5 91.4189 41.4 91.1689 41.4H90.3189C89.7189 41.4 89.2189 41.45 88.9189 41.45C88.5689 40.65 87.8689 40 87.2189 38.85C87.0689 38.55 86.9689 38.25 86.8189 38C86.6689 37.6 85.7689 36.7 85.7189 36.3C85.2189 35.7 85.0189 35.35 84.7189 35.05C84.2189 35 83.0189 34.9 83.0189 34.9H81.8189C81.1689 34.9 80.6689 35.05 76.4189 35.05H76.0689C75.5689 35.05 75.3689 35.25 74.8189 35.05C74.6189 34.95 73.5689 35.05 73.3189 35.1L72.6689 35.15L72.4189 35.5C72.1189 36.25 71.0189 37.75 70.7689 38.45L70.4189 39.35L69.1689 41.65C69.0689 41.9 68.7189 41.85 68.5689 41.95H66.0189C65.7689 41.7 65.7689 41.7 66.0189 41.4C66.0189 41.15 66.3189 40.5 66.3189 40.25C66.6189 39.7 66.8689 39.1 67.1189 38.6ZM80.4189 25.6L79.0189 22.7C78.6689 22.85 78.5689 23.05 78.4689 23.3C78.2189 24.25 77.7189 25.15 77.3189 26.05C77.0189 26.7 76.6189 27.25 76.3689 27.9C75.7689 29.25 75.1689 30.55 74.4689 31.8H74.7689C75.2689 31.8 75.7189 31.9 76.1689 31.8C76.5689 31.7 76.9189 31.8 77.2689 31.8C78.3689 31.8 79.5689 31.75 81.0189 31.85C81.7689 31.9 82.3689 31.8 83.0189 31.8H83.4689C83.4189 31.55 83.2689 31.4 83.1689 31.2C82.9189 30.65 82.5689 30.35 82.3689 29.75L80.6189 26.25C80.5189 26.05 80.4689 25.85 80.4189 25.6ZM105.414 21.95C106.714 24.2 108.214 26.8 109.964 29.55C110.264 30.45 110.814 31.25 111.364 31.8C111.614 32.35 112.064 33.2 112.464 33.75L112.564 33.55V31C112.564 30.9 112.614 30.85 112.614 30.75C112.364 29.25 112.714 28.1 112.564 26.7C112.614 26.25 112.614 25.85 112.614 25.45L112.514 22.85V16.65C112.514 16.15 112.614 13.3 112.564 12.35C112.564 12.1 112.564 11.8 113.114 11.8H114.764C115.364 11.8 116.364 12.1 116.614 12.1H116.864C116.914 16.65 116.964 21.8 117.114 23.95C117.064 24.5 117.114 25 117.064 25.5C117.014 26.25 117.064 26.95 117.064 27.7V30.1C117.114 31.9 116.964 33 116.964 33.2C116.914 34.15 116.914 35.1 116.914 36C116.964 37.25 116.864 38.5 116.914 39.75C116.914 40.25 116.914 40.75 116.964 41.25C116.964 41.5 116.714 41.5 116.414 41.5H114.764C113.964 41.6 113.514 41.5 113.314 41.5C112.664 39.8 112.264 39.4 111.364 37.75C111.164 37.45 110.764 36.7 110.514 36.4C110.114 35.95 109.964 35.25 109.364 34.7C108.514 33.35 107.714 31.9 106.814 30.45C105.914 29.05 104.614 27.6 103.414 25.75C102.914 24.5 101.664 23.1 100.914 21.9C100.914 21.65 100.814 25.15 100.814 25.1V25.5C100.864 26 100.764 26.55 100.764 27.05L100.664 33.25L100.764 35.85C100.764 36.25 100.814 36.65 100.764 37.1C100.864 38.05 100.764 39.1 100.814 40.1C100.864 41 100.764 41.35 100.614 41.5H96.6638C96.1138 41.5 95.5638 41.55 95.0138 41.5C94.9138 41.55 94.9138 38.85 94.9138 38C94.9138 37.05 94.9638 36.1 94.9138 35.15C94.9138 34.2 95.0138 33.3 94.9638 32.4C94.9638 31.75 94.9138 31.35 94.9138 31L94.8138 30.25C94.8138 30.15 94.8638 30.1 94.8638 30C94.6138 28.5 94.8638 27 94.7138 25.6C94.7638 25.15 94.7638 24.75 94.7638 24.35L94.6638 21.75L94.8138 15.55C94.8138 15.05 94.7638 14.5 94.7138 14L95.0138 13.55C95.3138 13.55 96.2138 13.5 97.2638 13.55C98.1138 13.55 98.4138 13.4 98.9638 13.4C99.2638 13.4 99.4638 13.55 99.8638 13.55H100.914C101.114 14.05 101.564 14.7 101.864 15.35C102.564 16.8 102.864 17.9 103.214 18.35C103.764 19 104.814 20.9 105.414 21.95Z" fill="#588D9C"/>
<path d="M174.904 25.2099L172.654 25.3099C172.404 25.3598 171.854 25.3598 171.604 25.4099L170.854 25.4598C170.704 25.4598 170.554 25.5099 170.404 25.5099C170.504 26.4599 170.304 26.9099 170.354 28.5099C170.404 30.1099 170.104 31.2599 170.154 32.7599C170.204 33.7099 170.104 35.0599 170.004 35.5099L169.854 39.0599V40.7599C168.454 41.0599 168.704 40.6599 167.004 40.9099C166.054 41.1099 166.004 41.0599 165.704 41.0599C165.704 40.4599 165.654 40.5599 165.704 39.9099C165.554 38.8599 165.404 35.7599 165.504 34.1599C165.504 33.6099 165.454 32.8099 165.404 32.1099C165.354 31.9599 165.354 31.8099 165.404 31.6099C165.454 31.4099 165.404 26.8598 165.404 26.6098C165.354 26.2099 165.204 23.4099 165.254 23.0599C165.354 21.0099 165.404 20.1598 165.054 17.9598C164.954 17.4599 165.154 14.4098 165.154 13.9098C165.154 13.6099 165.254 13.3098 165.154 12.8599L165.354 12.5098H169.854C172.804 12.5098 173.504 12.4599 174.254 12.5098C176.204 12.6599 177.604 12.6599 179.004 12.5098H181.754C182.054 13.0598 181.754 13.6099 181.754 14.1598V15.8598H181.454C180.804 15.8099 180.104 16.1599 179.454 16.0599C178.704 15.9099 177.304 16.1599 176.554 16.1599L172.754 16.3598C172.104 16.3598 171.404 16.3098 170.704 16.4099C170.704 17.0098 170.754 17.2099 170.754 17.8598C170.804 18.5599 170.754 19.7599 170.804 20.4599L171.004 21.6598C171.154 21.7099 172.904 21.6598 173.054 21.7099C173.354 21.6598 173.604 21.7598 173.854 21.7598L174.954 21.8598C175.604 21.8099 176.454 21.7598 177.004 21.7598C177.154 21.7598 177.304 21.7099 177.454 21.7598C177.604 21.8099 177.654 22.2098 177.604 22.4598L177.654 23.1099C177.704 23.3599 177.604 23.8598 177.654 24.1099L177.604 24.6598V24.9599C177.354 25.2099 177.554 25.2099 177.254 25.2099C176.854 25.2099 175.854 25.2599 174.904 25.2099ZM205.995 18.8598C206.295 20.4599 206.895 22.2098 206.895 23.9099C207.145 24.7099 207.145 25.9599 207.145 26.7099C207.145 27.5599 207.145 28.0599 206.895 29.0099C206.895 29.8099 206.895 31.0099 206.495 31.8099C206.295 32.2599 206.395 33.0599 206.095 33.8099L205.495 35.2099C205.045 36.3599 204.445 37.5099 203.895 38.2599C203.595 38.8099 202.345 40.0099 201.795 40.5599C201.195 41.1599 200.645 41.7099 199.845 42.0099C199.595 42.1099 199.295 42.2599 198.995 42.3099C198.145 42.4099 197.395 42.5599 196.695 42.6099C195.745 42.6599 193.295 42.5599 192.845 42.4099C191.645 41.9599 190.595 41.5599 189.745 40.6599L187.645 38.9099C186.195 37.7099 185.395 36.0599 184.845 34.3599C184.545 33.5599 184.545 32.9099 184.245 32.3599C183.895 30.4099 183.645 28.9099 183.695 27.2099C183.745 26.4099 183.695 25.3099 183.845 24.4098C183.995 24.0099 184.395 20.7599 184.545 20.3099C185.145 18.3599 185.695 16.8098 186.745 15.6098L188.195 14.0099C188.545 13.6598 189.095 13.3599 189.495 13.1099L190.595 12.4599C191.245 12.0099 192.795 11.6098 193.645 11.4598C194.495 11.3598 195.595 11.2599 196.645 11.2599C197.545 11.2599 198.095 11.5099 198.895 11.7599C199.395 11.8598 201.245 12.5098 202.195 13.5098C202.595 13.9598 203.545 14.4598 203.895 15.0598C204.045 15.3098 204.295 15.6098 204.495 15.8598C204.995 16.6598 205.995 18.0598 205.995 18.8598ZM195.045 30.1099H195.545C195.795 30.1099 195.795 29.9099 196.095 29.8599C196.545 29.8099 196.645 29.3099 196.995 29.0099C197.245 27.5599 197.245 26.4599 197.245 25.0098C197.245 24.5099 196.995 23.9099 196.395 23.6599C195.795 23.3599 195.545 23.3599 195.045 23.6599C194.745 23.6599 194.445 23.9099 194.445 23.9099C194.095 24.5099 193.795 25.0098 193.795 25.5599V28.0599C193.945 29.1099 194.345 29.6599 195.045 30.1099ZM231.483 18.8598C231.783 20.4599 232.383 22.2098 232.383 23.9099C232.633 24.7099 232.633 25.9599 232.633 26.7099C232.633 27.5599 232.633 28.0599 232.383 29.0099C232.383 29.8099 232.383 31.0099 231.983 31.8099C231.783 32.2599 231.883 33.0599 231.583 33.8099L230.983 35.2099C230.533 36.3599 229.933 37.5099 229.383 38.2599C229.083 38.8099 227.833 40.0099 227.283 40.5599C226.683 41.1599 226.133 41.7099 225.333 42.0099C225.083 42.1099 224.783 42.2599 224.483 42.3099C223.633 42.4099 222.883 42.5599 222.183 42.6099C221.233 42.6599 218.783 42.5599 218.333 42.4099C217.133 41.9599 216.083 41.5599 215.233 40.6599L213.133 38.9099C211.683 37.7099 210.883 36.0599 210.333 34.3599C210.033 33.5599 210.033 32.9099 209.733 32.3599C209.383 30.4099 209.133 28.9099 209.183 27.2099C209.233 26.4099 209.183 25.3099 209.333 24.4098C209.483 24.0099 209.883 20.7599 210.033 20.3099C210.633 18.3599 211.183 16.8098 212.233 15.6098L213.683 14.0099C214.033 13.6598 214.583 13.3599 214.983 13.1099L216.083 12.4599C216.733 12.0099 218.283 11.6098 219.133 11.4598C219.983 11.3598 221.083 11.2599 222.133 11.2599C223.033 11.2599 223.583 11.5099 224.383 11.7599C224.883 11.8598 226.733 12.5098 227.683 13.5098C228.083 13.9598 229.033 14.4598 229.383 15.0598C229.533 15.3098 229.783 15.6098 229.983 15.8598C230.483 16.6598 231.483 18.0598 231.483 18.8598ZM220.533 30.1099H221.033C221.283 30.1099 221.283 29.9099 221.583 29.8599C222.033 29.8099 222.133 29.3099 222.483 29.0099C222.733 27.5599 222.733 26.4599 222.733 25.0098C222.733 24.5099 222.483 23.9099 221.883 23.6599C221.283 23.3599 221.033 23.3599 220.533 23.6599C220.233 23.6599 219.933 23.9099 219.933 23.9099C219.583 24.5099 219.283 25.0098 219.283 25.5599V28.0599C219.433 29.1099 219.833 29.6599 220.533 30.1099ZM235.721 38.5599C235.771 38.1599 235.671 37.7599 235.771 37.3099C235.821 37.1599 235.871 36.7599 235.821 36.5599L235.671 35.0099C235.621 34.4599 235.721 33.9099 235.721 33.3099C235.671 33.0599 235.721 32.8099 235.721 32.5599C235.671 31.8599 235.971 30.9599 235.821 30.2599C235.771 30.1599 235.871 29.0599 235.871 28.9099C235.921 28.2599 235.921 27.6099 235.871 26.9099C235.871 25.3598 235.871 24.1099 235.971 23.2598C236.021 22.9599 236.021 22.4099 236.021 21.8598C235.971 21.1099 235.921 20.2099 235.921 19.3598C235.921 17.8598 235.871 16.8098 235.821 15.3098C235.821 14.7599 235.721 14.2599 235.771 13.7598C235.771 13.6099 235.771 12.9099 235.821 12.7598C235.821 12.7598 235.821 12.5098 236.121 12.5098H239.721C240.671 12.5098 241.671 12.5098 242.471 12.5598C243.171 12.6098 244.121 12.9598 244.671 13.1599C246.421 13.7598 246.871 13.9598 247.521 14.5099C248.721 15.4599 250.221 15.8598 251.321 18.0598C251.721 18.8598 252.471 19.7098 252.421 20.6599C252.721 21.6598 252.671 22.3598 252.971 22.9599C253.321 24.4098 253.321 26.1099 252.971 27.4599C253.021 28.3599 252.671 29.3099 252.621 30.2599C252.521 31.8099 252.121 31.9099 251.771 32.9599C251.671 33.3099 250.521 34.9099 250.371 35.2599C249.971 36.3599 249.371 36.6099 248.371 37.6599C247.971 38.1099 246.471 39.5099 245.921 39.8599C245.421 40.1099 242.971 41.5599 242.521 41.6099C241.171 41.7099 237.971 41.9099 236.621 41.9099H236.071C235.721 41.6099 235.721 41.3599 235.721 41.3599V38.5599ZM239.471 31.8099C239.421 33.4099 239.421 35.8099 239.471 37.4099C241.421 37.3099 242.471 36.8099 243.871 35.7599C244.771 35.1099 245.021 34.3099 245.371 33.5099C245.721 32.9099 245.921 32.0099 246.171 31.3099C246.271 30.9099 246.621 30.0599 246.621 29.5099C246.621 29.2099 246.871 27.8599 246.821 27.5599V26.6599C246.821 25.4598 247.021 24.1599 246.821 22.1098V21.8099C246.671 20.0599 245.771 19.1098 244.671 17.8098C244.121 17.1598 243.671 16.9599 241.921 16.3598C241.371 16.1599 240.271 16.0599 239.571 16.0098C239.471 16.2098 239.471 16.3598 239.471 16.3598V16.7599C239.371 17.4599 239.421 18.7099 239.421 19.6599C239.421 20.7599 239.571 22.3099 239.421 23.8598C239.421 24.2099 239.371 24.6099 239.371 24.9599C239.421 25.8098 239.271 26.7099 239.471 27.6099C239.321 29.0099 239.521 30.4099 239.471 31.8099Z" fill="#588D9C"/>
<path d="M143.622 0C146.066 0 148.066 2.02869 148.066 4.5082C148.066 6.9877 146.066 9.01639 143.622 9.01639C141.177 9.01639 139.177 6.9877 139.177 4.5082C139.177 2.02869 141.177 0 143.622 0ZM163.622 15.7787H150.288V45.082H145.844V31.5574H141.399V45.082H136.955V15.7787H123.622V11.2705H163.622V15.7787Z" fill="#588D9C"/>
</svg>
