<svg width="31" height="30" viewBox="0 0 31 30" fill="none" xmlns="http://www.w3.org/2000/svg">
<g clip-path="url(#clip0_28_47)">
<path d="M27.72 15C27.72 8.1 22.12 2.5 15.22 2.5C8.31997 2.5 2.71997 8.1 2.71997 15C2.71997 19.6125 5.80747 23.575 10.22 25.3125V27.5H20.22V25.3125C24.6325 23.575 27.72 19.6125 27.72 15ZM25.22 15H20.22V6.35C23.2075 8.0875 25.22 11.3125 25.22 15ZM17.72 5.325V15H12.72V5.325C13.52 5.125 14.3575 5 15.22 5C16.0825 5 16.92 5.125 17.72 5.325ZM5.21997 15C5.21997 11.3125 7.23247 8.0875 10.22 6.35V15H5.21997Z" fill="#ACDBDF"/>
</g>
<defs>
<clipPath id="clip0_28_47">
<rect width="30" height="30" fill="white" transform="translate(0.219971)"/>
</clipPath>
</defs>
</svg>
